<svg width="63" height="63" viewBox="0 0 63 63" fill="none" xmlns="http://www.w3.org/2000/svg">
    <path d="M59 14.945C48.825 14.0375 38.5889 13.57 28.3833 13.57C22.3333 13.57 16.2833 13.845 10.2333 14.395L4 14.945M20.8056 12.1675L21.4778 8.565C21.9667 5.9525 22.3333 4 27.4972 4H35.5028C40.6667 4 41.0639 6.0625 41.5222 8.5925L42.1944 12.1675M52.4306 23.635L50.4444 51.3275C50.1083 55.645 49.8333 59 41.3083 59H21.6917C13.1667 59 12.8917 55.645 12.5556 51.3275L10.5694 23.635M26.3972 43.875H36.5722M23.8611 32.875H39.1389" stroke="#DB5D5D" stroke-width="7" stroke-linecap="round" stroke-linejoin="round"/>
</svg>
