<svg width="122" height="122" viewBox="0 0 122 122" fill="none" xmlns="http://www.w3.org/2000/svg">
<path d="M112.429 47.6429H74.3571V9.57143C74.3571 4.56225 70.2949 0.5 65.2857 0.5H56.7143C51.7051 0.5 47.6429 4.56225 47.6429 9.57143V47.6429H9.57143C4.56225 47.6429 0.5 51.7051 0.5 56.7143V65.2857C0.5 70.2949 4.56225 74.3571 9.57143 74.3571H47.6429V112.429C47.6429 117.438 51.7051 121.5 56.7143 121.5H65.2857C70.2949 121.5 74.3571 117.438 74.3571 112.429V74.3571H112.429C117.438 74.3571 121.5 70.2949 121.5 65.2857V56.7143C121.5 51.7051 117.438 47.6429 112.429 47.6429Z" fill="#D3D3D3" stroke="#D3D3D3"/>
</svg>